<svg xmlns="http://www.w3.org/2000/svg" width="126" height="128" viewBox="0 0 126 128" version="1.1">
	<path d="M 48 1.547 C 30.138 5.362, 13.004 18.929, 4.761 35.786 L 0.500 44.500 0.500 64 L 0.500 83.500 4.113 91 C 6.101 95.125, 9.656 100.900, 12.014 103.833 L 16.302 109.165 19.749 105.718 L 23.195 102.271 18.660 96.110 C 12.715 88.034, 6.911 72.280, 8.426 68.331 C 8.832 67.274, 13.930 67, 33.228 67 L 57.519 67 76.860 86.360 L 96.201 105.720 93.208 107.852 C 76.647 119.644, 52.135 120.947, 35.170 110.938 L 31.705 108.893 28.353 112.143 C 26.509 113.930, 25 115.741, 25 116.168 C 25 116.594, 28.818 118.791, 33.485 121.050 C 68.220 137.862, 108.534 121.517, 121.684 85.291 C 123.020 81.610, 124.425 75.651, 124.806 72.049 L 125.500 65.500 126.067 73.500 C 126.423 78.536, 126.633 74.646, 126.633 63 C 126.633 50.054, 126.443 46.902, 126 52.500 C 125.652 56.900, 125.284 58.860, 125.183 56.855 C 124.827 49.774, 119.141 34.460, 114.654 28.500 C 113.171 26.529, 113.104 26.543, 110.074 29.437 C 106.472 32.878, 106.354 33.777, 108.926 38.193 C 115.526 49.526, 117.290 66.421, 113.238 79.500 C 111.215 86.033, 104.697 98, 103.163 98 C 102.787 98, 94.272 89.783, 84.240 79.740 L 66 61.480 66 35.740 C 66 21.583, 66.338 10.007, 66.750 10.015 C 67.162 10.023, 70.317 10.694, 73.760 11.506 C 80.996 13.212, 89.809 17.446, 95.388 21.898 C 97.526 23.604, 99.579 25, 99.950 25 C 101.042 25, 106 19.493, 106 18.280 C 106 16.549, 97.036 10.393, 88.860 6.511 C 75.802 0.309, 61.775 -1.395, 48 1.547 M 44.487 12.799 C 38.691 14.803, 30.945 19.156, 28.996 21.504 C 27.816 22.927, 29.220 24.695, 40.562 36.062 C 47.662 43.178, 54.040 49, 54.736 49 C 55.710 49, 56 44.649, 56 30 L 56 11 52.750 11.033 C 50.962 11.051, 47.244 11.845, 44.487 12.799 M 18.111 32.586 C 14.639 37, 10.043 47.407, 9.358 52.406 L 8.728 57 27.364 57 C 37.614 57, 46 56.656, 46 56.236 C 46 55.815, 40.215 49.699, 33.144 42.644 L 20.289 29.817 18.111 32.586 M 0.415 64 C 0.415 74.175, 0.564 78.337, 0.745 73.250 C 0.927 68.162, 0.927 59.837, 0.745 54.750 C 0.564 49.662, 0.415 53.825, 0.415 64" stroke="none" fill="black" fill-rule="evenodd"/>
</svg>